<svg width="67" height="67" viewBox="0 0 67 67" fill="none" xmlns="http://www.w3.org/2000/svg">
<g clip-path="url(#clip0)">
<path d="M42.3901 39.3599H25.4901L22.9001 42.2299V39.3599H19.3801V23.5399H42.3901V39.3599Z" stroke="white" stroke-width="1.4173" stroke-miterlimit="10"/>
<path d="M24.1802 44.15H41.0702L43.6702 47.02V44.15H47.1802V28.33H44.4202" stroke="white" stroke-width="1.4173" stroke-miterlimit="10"/>
<g opacity="0.5">
<path opacity="0.5" d="M33.2802 7.08988C47.7502 7.08988 59.4802 18.8199 59.4802 33.2899C59.4802 47.7599 47.7502 59.4899 33.2802 59.4899C18.8102 59.4899 7.08024 47.7599 7.08024 33.2899C7.08024 18.8199 18.8102 7.08988 33.2802 7.08988ZM33.2802 -0.00012207C14.9302 -0.00012207 0.000244141 14.9299 0.000244141 33.2799C0.000244141 51.6299 14.9302 66.5599 33.2802 66.5599C51.6302 66.5599 66.5602 51.6299 66.5602 33.2799C66.5602 14.9299 51.6302 -0.00012207 33.2802 -0.00012207Z" fill="white"/>
</g>
<path d="M33.2803 59.4798C47.7502 59.4798 59.4803 47.7497 59.4803 33.2798C59.4803 18.81 47.7502 7.07983 33.2803 7.07983C18.8105 7.07983 7.08032 18.81 7.08032 33.2798C7.08032 47.7497 18.8105 59.4798 33.2803 59.4798Z" stroke="white" stroke-width="0.9921" stroke-miterlimit="10"/>
</g>
<defs>
<clipPath id="clip0">
<rect width="66.56" height="66.56" fill="white" transform="translate(0.000244141 -0.00012207)"/>
</clipPath>
</defs>
</svg>
