<svg width="67" height="67" viewBox="0 0 67 67" fill="none" xmlns="http://www.w3.org/2000/svg">
<g clip-path="url(#clip0)">
<path d="M42.3899 39.36H25.4899L22.8999 42.23V39.36H19.3799V23.54H42.3899V39.36Z" stroke="#17479B" stroke-width="1.4173" stroke-miterlimit="10"/>
<path d="M24.1799 44.1501H41.0699L43.6699 47.0201V44.1501H47.1799V28.3301H44.4199" stroke="#17479B" stroke-width="1.4173" stroke-miterlimit="10"/>
<g opacity="0.5">
<path opacity="0.5" d="M33.28 7.09C47.75 7.09 59.48 18.82 59.48 33.29C59.48 47.76 47.75 59.49 33.28 59.49C18.81 59.49 7.08 47.76 7.08 33.29C7.08 18.82 18.81 7.09 33.28 7.09ZM33.28 0C14.93 0 0 14.93 0 33.28C0 51.63 14.93 66.56 33.28 66.56C51.63 66.56 66.56 51.63 66.56 33.28C66.56 14.93 51.63 0 33.28 0Z" fill="#17479B"/>
</g>
<path d="M33.2801 59.48C47.7499 59.48 59.4801 47.7498 59.4801 33.28C59.4801 18.8101 47.7499 7.07996 33.2801 7.07996C18.8102 7.07996 7.08008 18.8101 7.08008 33.28C7.08008 47.7498 18.8102 59.48 33.2801 59.48Z" stroke="#17479B" stroke-width="0.9921" stroke-miterlimit="10"/>
</g>
<defs>
<clipPath id="clip0">
<rect width="66.56" height="66.56" fill="white"/>
</clipPath>
</defs>
</svg>
