<svg width="200" height="60" viewBox="0 0 200 60" fill="none" xmlns="http://www.w3.org/2000/svg">
<g clip-path="url(#clip0)">
<path fill-rule="evenodd" clip-rule="evenodd" d="M58.5692 30.0003L35.0437 35.035L29.9999 58.5696L24.9562 35.035L1.43066 30.0003L24.9562 24.9656L29.9999 1.43103L35.0437 24.9656L58.5692 30.0003Z" fill="#000F9F"/>
<path fill-rule="evenodd" clip-rule="evenodd" d="M30 47.1418L26.6495 33.3506L12.8584 30.0002L26.6495 26.6498L30 12.8586L33.3595 26.6498L47.1415 30.0002L33.3595 33.3506L30 47.1418Z" fill="#ED1C24"/>
<path fill-rule="evenodd" clip-rule="evenodd" d="M30 1.42192C24.3477 1.42192 18.8224 3.09801 14.1227 6.23823C9.42305 9.37846 5.76009 13.8418 3.59707 19.0638C1.43404 24.2858 0.868096 30.0319 1.9708 35.5756C3.0735 41.1193 5.79532 46.2114 9.79207 50.2082C13.7888 54.2049 18.881 56.9267 24.4246 58.0294C29.9683 59.1321 35.7144 58.5662 40.9365 56.4032C46.1585 54.2402 50.6218 50.5772 53.762 45.8775C56.9022 41.1778 58.5783 35.6525 58.5783 30.0002C58.5759 22.4215 55.5642 15.1539 50.2053 9.79496C44.8463 4.43601 37.5787 1.42432 30 1.42192ZM30 0.000244141C35.9334 0.000244141 41.7336 1.75971 46.6671 5.05616C51.6006 8.3526 55.4458 13.038 57.7164 18.5197C59.987 24.0015 60.5811 30.0335 59.4236 35.853C58.266 41.6724 55.4088 47.0179 51.2132 51.2134C47.0176 55.409 41.6721 58.2662 35.8527 59.4238C30.0333 60.5814 24.0013 59.9873 18.5195 57.7166C13.0377 55.446 8.35235 51.6008 5.05591 46.6673C1.75947 41.7339 0 35.9337 0 30.0002C0 22.0437 3.1607 14.4131 8.7868 8.78704C14.4129 3.16095 22.0435 0.000244141 30 0.000244141" fill="#000F9F"/>
<path fill-rule="evenodd" clip-rule="evenodd" d="M30.0001 37.1449L28.3248 31.6755L22.8555 30.0003L28.3248 28.3251L30.0001 22.8557L31.6753 28.3251L37.1446 30.0003L31.6753 31.6755L30.0001 37.1449Z" fill="#FFF200"/>
<path d="M121.34 20.0394L128.458 30.9057L128.213 26.3781V20.0394H134.479V39.9609H128.349L121.223 29.0947L121.467 33.6223V39.9609H115.21V20.0394H121.34ZM99.164 39.9609L92.3454 20.0394H98.9466L102.433 33.3144L106.055 20.0394H112.656L105.72 39.9609H99.164ZM90.48 39.9609H73.8184V20.0394H90.1178V24.6938H80.3562V27.5462H88.5965V32.2097H80.3562V35.3156H90.48V39.9609Z" fill="#000F9F"/>
<path d="M199.215 27.664H193.003C193.073 27.239 193.053 26.8042 192.944 26.3877C192.834 25.9711 192.639 25.5822 192.369 25.2462C192.064 24.9438 191.698 24.7105 191.295 24.562C190.892 24.4136 190.461 24.3536 190.033 24.386C187.597 24.386 186.031 26.3328 185.324 30.2085C185.192 30.886 185.119 31.5738 185.107 32.264C185.107 34.5158 186.179 35.6446 188.322 35.6507C190.26 35.6507 191.57 34.5218 192.252 32.264H198.59C197.963 34.6796 196.535 36.8111 194.54 38.311C192.545 39.8108 190.101 40.5903 187.606 40.5224C184.763 40.5224 182.554 39.807 180.996 38.3763C180.199 37.6125 179.577 36.6853 179.172 35.6584C178.767 34.6315 178.589 33.5291 178.651 32.427C178.655 31.6104 178.727 30.7956 178.868 29.9912C179.322 27.0145 180.829 24.2995 183.115 22.3395C185.188 20.488 187.878 19.4772 190.658 19.5052C193.483 19.5052 195.626 20.136 197.087 21.3977C197.821 22.0784 198.393 22.9149 198.761 23.8457C199.13 24.7765 199.285 25.778 199.215 26.7765C199.215 27.0663 199.215 27.3651 199.215 27.6821V27.664ZM164.534 39.9972H157.987L161.509 20.0757H171.144C173.625 20.0757 175.509 20.5556 176.776 21.5155C177.38 21.9656 177.861 22.559 178.177 23.242C178.493 23.925 178.634 24.6761 178.587 25.4273C178.584 25.8923 178.539 26.3561 178.452 26.8128C177.637 31.4853 174.458 33.8215 168.916 33.8215H165.611L164.534 39.9972ZM166.444 29.1309H169.161C170.918 29.1309 171.932 28.3522 172.212 26.8037C172.221 26.6741 172.221 26.544 172.212 26.4143C172.212 25.2643 171.162 24.6938 169.052 24.6938H167.196L166.444 29.1309ZM157.434 25.8257H151.222C151.25 25.5585 151.2 25.2889 151.077 25.0496C150.955 24.8102 150.767 24.6112 150.534 24.4765C150.03 24.2115 149.464 24.0864 148.895 24.1143C147.51 24.1143 146.749 24.4856 146.622 25.2462C146.496 26.0068 147.283 26.5954 149.004 27.0573C150.678 27.488 152.325 28.0141 153.939 28.6329C154.736 28.9447 155.421 29.4886 155.905 30.1941C156.39 30.8996 156.651 31.7343 156.656 32.59C156.653 32.9458 156.617 33.3006 156.547 33.6495C156.369 34.7172 155.961 35.7337 155.353 36.6293C154.745 37.5249 153.951 38.2784 153.024 38.8381C150.889 40.0383 148.463 40.6215 146.016 40.5224C143.978 40.6269 141.967 40.0185 140.329 38.8019C139.682 38.3214 139.158 37.6941 138.8 36.9714C138.443 36.2488 138.262 35.4516 138.273 34.6455C138.273 34.379 138.291 34.1127 138.328 33.8487H144.594C144.582 34.1528 144.648 34.455 144.784 34.7272C144.92 34.9994 145.123 35.2329 145.373 35.4062C145.908 35.7615 146.541 35.9418 147.184 35.9223C148.995 35.9223 149.982 35.4333 150.145 34.4554C150.281 33.7129 149.493 33.1152 147.772 32.6443C146.083 32.2351 144.422 31.7148 142.801 31.0868C141.994 30.7631 141.303 30.2038 140.819 29.4818C140.334 28.7598 140.078 27.9086 140.084 27.0391C140.089 26.6501 140.129 26.2622 140.202 25.8801C140.366 24.8908 140.746 23.95 141.316 23.125C141.886 22.3 142.631 21.6112 143.498 21.108C145.456 19.975 147.694 19.4164 149.955 19.4961C152.581 19.4961 154.482 20.1209 155.813 21.3615C156.386 21.9439 156.823 22.6446 157.095 23.4143C157.368 24.184 157.468 25.0041 157.389 25.8167" fill="#ED1C24"/>
</g>
<defs>
<clipPath id="clip0">
<rect width="199.215" height="60" fill="white" transform="translate(0 0.000244141)"/>
</clipPath>
</defs>
</svg>
